<?xml version="1.0" encoding="UTF-8"?>
<svg version="1.1" xmlns="http://www.w3.org/2000/svg" width="256" height="256">
<path d="M0 0 C2.2734375 0.1640625 2.2734375 0.1640625 5 1 C6.8515625 3.2734375 6.8515625 3.2734375 8.625 6.375 C8.95274414 6.93646729 9.28048828 7.49793457 9.61816406 8.07641602 C10.3501841 9.33556456 11.07433899 10.5993073 11.79199219 11.86669922 C13.60175985 15.06268746 15.44825218 18.23722268 17.29052734 21.41455078 C18.24554597 23.06546455 19.19655868 24.71870377 20.14306641 26.37451172 C22.10990648 29.8062789 24.08302877 33.18325473 26.328125 36.44140625 C28 39 28 39 28 41 C30.1869591 41.52318041 32.37446069 42.04386311 34.5625 42.5625 C35.28179687 42.73305908 36.00109375 42.90361816 36.7421875 43.0793457 C42.15207041 44.35261277 47.57153953 45.5800061 52.99609375 46.7890625 C54.40877336 47.10473375 55.8214524 47.4204076 57.23413086 47.73608398 C59.3698021 48.21312626 61.50574256 48.68876754 63.64260864 49.16043091 C65.66871172 49.60767762 67.6937922 50.05931951 69.71875 50.51171875 C70.90404297 50.77428467 72.08933594 51.03685059 73.31054688 51.30737305 C76 52 76 52 77 53 C77.44140625 55.13671875 77.44140625 55.13671875 77 58 C75.2409752 60.52361631 73.10473688 62.63789858 70.9375 64.8125 C69.73108461 66.06574603 68.52534898 67.31964679 67.3203125 68.57421875 C66.74055664 69.17024902 66.16080078 69.7662793 65.56347656 70.38037109 C63.20026771 72.82845472 60.95485799 75.3609833 58.765625 77.96484375 C57.35410656 79.59183735 55.86787246 81.15389922 54.359375 82.69140625 C53.42648641 83.6895466 52.49419413 84.68824461 51.5625 85.6875 C50.69753906 86.57824219 49.83257812 87.46898437 48.94140625 88.38671875 C43.43017138 96.33743209 47.46935124 110.92414052 48.5 119.875 C48.78460448 122.39285226 49.06596176 124.91107411 49.34375 127.4296875 C49.53227539 129.07300049 49.53227539 129.07300049 49.72460938 130.74951172 C50.01731025 134.20431621 50.17893155 137.53556935 50 141 C49.34 141.66 48.68 142.32 48 143 C42.83613334 142.69809306 38.91987063 141.26953719 34.3125 139 C33.00703002 138.37261557 31.70100884 137.74637721 30.39453125 137.12109375 C29.34579834 136.61425049 29.34579834 136.61425049 28.27587891 136.09716797 C24.03269266 134.05158987 19.77335956 132.04421093 15.5 130.0625 C14.66380127 129.66095703 13.82760254 129.25941406 12.96606445 128.84570312 C12.16257568 128.47509766 11.35908691 128.10449219 10.53125 127.72265625 C9.82548828 127.39015869 9.11972656 127.05766113 8.39257812 126.71508789 C2.65730641 125.00094393 -1.88836997 126.00625373 -7.203125 128.44921875 C-8.34910156 128.96806641 -9.49507812 129.48691406 -10.67578125 130.02148438 C-11.85527344 130.57126953 -13.03476563 131.12105469 -14.25 131.6875 C-15.99603516 132.48317383 -15.99603516 132.48317383 -17.77734375 133.29492188 C-22.24589897 135.33404422 -26.70960941 137.37832117 -31.13476562 139.51025391 C-32.57625977 140.19547119 -32.57625977 140.19547119 -34.046875 140.89453125 C-35.30516113 141.50518433 -35.30516113 141.50518433 -36.58886719 142.12817383 C-39.2843421 143.10281345 -41.15880099 143.39154862 -44 143 C-46.12891807 139.80662289 -46.23137275 139.45915711 -45.84399414 135.91503906 C-45.76053238 135.09698792 -45.67707062 134.27893677 -45.59107971 133.43609619 C-45.49012497 132.5548407 -45.38917023 131.67358521 -45.28515625 130.765625 C-45.1911705 129.85423767 -45.09718475 128.94285034 -45.00035095 128.00384521 C-44.69848173 125.08464773 -44.38186847 122.16733128 -44.0625 119.25 C-43.74766656 116.34688396 -43.43631913 113.44359034 -43.13536072 110.53900146 C-42.94787277 108.73167929 -42.75242989 106.92515916 -42.54786682 105.11968994 C-41.59347518 96.7977201 -41.59347518 96.7977201 -44.19580078 89.04711914 C-44.93805908 88.29869751 -44.93805908 88.29869751 -45.6953125 87.53515625 C-46.2428418 86.96700195 -46.79037109 86.39884766 -47.35449219 85.81347656 C-48.23089355 84.94674316 -48.23089355 84.94674316 -49.125 84.0625 C-50.32105235 82.83014471 -51.51637165 81.59707751 -52.7109375 80.36328125 C-53.28424805 79.7801416 -53.85755859 79.19700195 -54.44824219 78.59619141 C-56.84246578 76.13341075 -59.07222022 73.54187839 -61.3046875 70.93359375 C-62.6328913 69.41870692 -64.00073812 67.93856137 -65.3828125 66.47265625 C-66.20523438 65.59480469 -67.02765625 64.71695313 -67.875 63.8125 C-69.01582031 62.61560547 -69.01582031 62.61560547 -70.1796875 61.39453125 C-72.12008687 58.84203166 -72.65280659 57.15274017 -73 54 C-69.18044947 50.29599335 -64.63028673 49.85911131 -59.59765625 48.9140625 C-57.71930859 48.53691847 -55.84105623 48.15929961 -53.96289062 47.78125 C-51.0105067 47.19956724 -48.05716926 46.62397843 -45.10180664 46.05761719 C-42.24269489 45.50548654 -39.38905507 44.92994756 -36.53515625 44.3515625 C-35.65481216 44.18991608 -34.77446808 44.02826965 -33.8674469 43.86172485 C-27.47930228 42.54851576 -24.31813127 40.36501668 -20.54956055 34.89453125 C-20.16582275 34.20746094 -19.78208496 33.52039063 -19.38671875 32.8125 C-18.94714844 32.03729004 -18.50757813 31.26208008 -18.0546875 30.46337891 C-17.37792969 29.24400635 -17.37792969 29.24400635 -16.6875 28 C-15.72407835 26.29867308 -14.75922661 24.59815521 -13.79296875 22.8984375 C-13.32165527 22.06666992 -12.8503418 21.23490234 -12.36474609 20.37792969 C-9.89626471 16.07685479 -7.27724364 11.8732006 -4.65625 7.6640625 C-3.07749116 5.1246438 -1.53153115 2.56811626 0 0 Z " fill="#3FB8FF" transform="translate(126,57)"/>
<path d="M0 0 C0.33 0 0.66 0 1 0 C1 7.59 1 15.18 1 23 C5.25637408 21.93590648 8.96530497 20.25376149 12.9140625 18.40234375 C14.49566092 17.67548973 16.07770707 16.94960931 17.66015625 16.22460938 C20.13938171 15.0858299 22.61553978 13.94194839 25.08447266 12.78100586 C27.47830267 11.65801301 29.88228776 10.55976574 32.2890625 9.46484375 C33.01235748 9.11800034 33.73565247 8.77115692 34.48086548 8.4138031 C40.07685382 5.90417238 44.90970994 5.60565508 51 6 C51.495 6.99 51.495 6.99 52 8 C50.79085937 7.88269531 49.58171875 7.76539063 48.3359375 7.64453125 C41.4397856 7.65127367 35.74598324 10.79326568 29.625 13.6875 C27.8925 14.48317383 27.8925 14.48317383 26.125 15.29492188 C21.6918964 17.33384932 17.26769743 19.387537 12.87402344 21.51025391 C11.91270508 21.96706543 10.95138672 22.42387695 9.9609375 22.89453125 C9.12095215 23.3016333 8.2809668 23.70873535 7.41552734 24.12817383 C4.71832837 25.10166256 2.84242134 25.39179969 0 25 C-2.28476032 21.57285952 -2.16747262 20.8318202 -1.7578125 16.89453125 C-1.66113281 15.91162109 -1.56445312 14.92871094 -1.46484375 13.91601562 C-1.35269531 12.89185547 -1.24054688 11.86769531 -1.125 10.8125 C-1.02058594 9.77673828 -0.91617188 8.74097656 -0.80859375 7.67382812 C-0.54914022 5.11467283 -0.27922837 2.55706072 0 0 Z " fill="#D0EEFF" transform="translate(82,175)"/>
<path d="M0 0 C-5.40623883 1.59729784 -10.85282469 2.97537458 -16.328125 4.31640625 C-18.23874112 4.80523347 -20.12904693 5.37634898 -22 6 C-22.33 6.66 -22.66 7.32 -23 8 C-22.6875 6.125 -22.6875 6.125 -22 4 C-18.5989125 1.73260834 -15.49364674 1.07762252 -11.5625 0.3125 C-10.89412109 0.17005859 -10.22574219 0.02761719 -9.53710938 -0.11914062 C-6.08640357 -0.80654585 -3.34010306 -1.272827 0 0 Z " fill="#A5DEFF" transform="translate(76,106)"/>
</svg>
